<?xml version="1.0" encoding="utf-8"?>
<COLLADA xmlns="http://www.collada.org/2005/11/COLLADASchema" version="1.4.1" xmlns:xsi="http://www.w3.org/2001/XMLSchema-instance">
  <asset>
    <contributor>
      <author>Blender User</author>
      <authoring_tool>Blender 4.5.5 LTS commit date:2025-11-17, commit time:16:03, hash:836beaaf597a</authoring_tool>
    </contributor>
    <created>2026-08-03T22:56:54</created>
    <modified>2026-08-03T22:56:54</modified>
    <unit name="meter" meter="1"/>
    <up_axis>Z_UP</up_axis>
  </asset>
  <library_effects>
    <effect id="Body01_001-effect">
      <profile_COMMON>
        <newparam sid="KidsGuide3DArrow_png-surface">
          <surface type="2D">
            <init_from>KidsGuide3DArrow_png</init_from>
          </surface>
        </newparam>
        <newparam sid="KidsGuide3DArrow_png-sampler">
          <sampler2D>
            <source>KidsGuide3DArrow_png-surface</source>
          </sampler2D>
        </newparam>
        <technique sid="common">
          <lambert>
            <emission>
              <color sid="emission">0 0 0 1</color>
            </emission>
            <diffuse>
              <texture texture="KidsGuide3DArrow_png-sampler" texcoord="KidsGuide3DArrow__Body01-texcoord"/>
            </diffuse>
            <index_of_refraction>
              <float sid="ior">1.5</float>
            </index_of_refraction>
          </lambert>
        </technique>
      </profile_COMMON>
    </effect>
  </library_effects>
  <library_images>
    <image id="KidsGuide3DArrow_png" name="KidsGuide3DArrow_png">
      <init_from>KidsGuide3DArrow.png</init_from>
    </image>
  </library_images>
  <library_materials>
    <material id="Body01_001-material" name="Body01.001">
      <instance_effect url="#Body01_001-effect"/>
    </material>
  </library_materials>
  <library_geometries>
    <geometry id="KidsGuide3DArrow__Body01_001-mesh" name="KidsGuide3DArrow__Body01.001">
      <mesh>
        <source id="KidsGuide3DArrow__Body01_001-mesh-positions">
          <float_array id="KidsGuide3DArrow__Body01_001-mesh-positions-array" count="126">-18.8304 -5.00012 -49.99998 18.83041 -5.00012 -49.99998 -18.8304 -5.00012 0 18.83041 -5.00012 0 0 -5.00012 49.99998 -40 -5.00012 0 40 -5.00012 0 40 9.000121 0 18.83041 9.000121 0 0 9.000121 49.99998 -18.8304 9.000121 -49.99998 -18.8304 9.000121 0 18.83041 9.000121 -49.99998 -40 9.000121 0 18.83041 -5.00012 -49.99998 -18.8304 -5.00012 -49.99998 18.83041 9.000121 -49.99998 -18.8304 9.000121 -49.99998 -18.8304 -5.00012 -49.99998 -18.8304 -5.00012 0 -18.8304 9.000121 -49.99998 -18.8304 9.000121 0 18.83041 -5.00012 0 18.83041 -5.00012 -49.99998 18.83041 9.000121 0 18.83041 9.000121 -49.99998 0 -5.00012 49.99998 40 -5.00012 0 0 9.000121 49.99998 40 9.000121 0 -40 9.000121 0 -40 -5.00012 0 0 9.000121 49.99998 0 -5.00012 49.99998 18.83041 -5.00012 0 18.83041 9.000121 0 40 -5.00012 0 40 9.000121 0 -18.8304 9.000121 0 -18.8304 -5.00012 0 -40 9.000121 0 -40 -5.00012 0</float_array>
          <technique_common>
            <accessor source="#KidsGuide3DArrow__Body01_001-mesh-positions-array" count="42" stride="3">
              <param name="X" type="float"/>
              <param name="Y" type="float"/>
              <param name="Z" type="float"/>
            </accessor>
          </technique_common>
        </source>
        <source id="KidsGuide3DArrow__Body01_001-mesh-normals">
          <float_array id="KidsGuide3DArrow__Body01_001-mesh-normals-array" count="39">0 -1 0 0 -1 0 0 1 0 0 1 0 0 1 0 0 0 -1 -1 0 0 1 0 0 1 0 0 0.7808687 0 0.6246952 0.7808687 0 0.6246953 -0.7808687 0 0.6246953 -0.7808687 0 0.6246952</float_array>
          <technique_common>
            <accessor source="#KidsGuide3DArrow__Body01_001-mesh-normals-array" count="13" stride="3">
              <param name="X" type="float"/>
              <param name="Y" type="float"/>
              <param name="Z" type="float"/>
            </accessor>
          </technique_common>
        </source>
        <source id="KidsGuide3DArrow__Body01_001-mesh-map-0">
          <float_array id="KidsGuide3DArrow__Body01_001-mesh-map-0-array" count="144">0.2299534 0.7914854 0.2651713 0.7914854 0.2299534 0.7281757 0.2651713 0.7914854 0.2651713 0.7281757 0.2299534 0.7281757 0.2299534 0.7281757 0.2475624 0.692958 0.2123445 0.7281757 0.2299534 0.7281757 0.2651713 0.7281757 0.2475624 0.692958 0.2651713 0.7281757 0.2827954 0.7281757 0.2475624 0.692958 0.3463187 0.7454948 0.2967727 0.7454948 0.2472267 0.6464027 0.2967727 0.7454948 0.1976806 0.8445716 0.1976806 0.7454948 0.2967727 0.7454948 0.2967727 0.8445716 0.1976806 0.8445716 0.2967727 0.7454948 0.1976806 0.7454948 0.2472267 0.6464027 0.2472267 0.6464027 0.1976806 0.7454948 0.1481345 0.7454948 0.3170062 0.2049591 0.2737469 0.2049591 0.3170062 0.2049591 0.2737469 0.2049591 0.2737469 0.2049591 0.3170062 0.2049591 0.2737469 0.2049591 0.2737469 0.1616998 0.2737469 0.2049591 0.2737469 0.1616998 0.2737469 0.1616998 0.2737469 0.2049591 0.3170062 0.1616998 0.3170062 0.2049591 0.3170062 0.1616998 0.3170062 0.2049591 0.3170062 0.2049591 0.3170062 0.1616998 0.2953689 0.1184405 0.3386282 0.1616998 0.2953689 0.1184405 0.3386282 0.1616998 0.3386282 0.1616998 0.2953689 0.1184405 0.2521095 0.1616998 0.2521095 0.1616998 0.2953689 0.1184405 0.2521095 0.1616998 0.2953689 0.1184405 0.2953689 0.1184405 0.3170062 0.1616998 0.3170062 0.1616998 0.3386282 0.1616998 0.3170062 0.1616998 0.3386282 0.1616998 0.3386282 0.1616998 0.2737469 0.1616998 0.2737469 0.1616998 0.2521095 0.1616998 0.2737469 0.1616998 0.2521095 0.1616998 0.2521095 0.1616998</float_array>
          <technique_common>
            <accessor source="#KidsGuide3DArrow__Body01_001-mesh-map-0-array" count="72" stride="2">
              <param name="S" type="float"/>
              <param name="T" type="float"/>
            </accessor>
          </technique_common>
        </source>
        <vertices id="KidsGuide3DArrow__Body01_001-mesh-vertices">
          <input semantic="POSITION" source="#KidsGuide3DArrow__Body01_001-mesh-positions"/>
        </vertices>
        <triangles material="Body01_001-material" count="24">
          <input semantic="VERTEX" source="#KidsGuide3DArrow__Body01_001-mesh-vertices" offset="0"/>
          <input semantic="NORMAL" source="#KidsGuide3DArrow__Body01_001-mesh-normals" offset="1"/>
          <input semantic="TEXCOORD" source="#KidsGuide3DArrow__Body01_001-mesh-map-0" offset="2" set="0"/>
          <p>0 0 0 1 0 1 2 0 2 1 1 3 3 1 4 2 1 5 2 0 6 4 0 7 5 0 8 2 0 9 3 0 10 4 0 11 3 0 12 6 0 13 4 0 14 7 2 15 8 2 16 9 2 17 8 3 18 10 3 19 11 3 20 8 3 21 12 3 22 10 3 23 8 3 24 11 3 25 9 3 26 9 4 27 11 4 28 13 4 29 14 5 30 15 5 31 16 5 32 15 5 33 17 5 34 16 5 35 18 6 36 19 6 37 20 6 38 19 6 39 21 6 40 20 6 41 22 7 42 23 7 43 24 7 44 23 8 45 25 8 46 24 8 47 26 9 48 27 9 49 28 9 50 27 10 51 29 10 52 28 10 53 30 11 54 31 11 55 32 11 56 31 12 57 33 12 58 32 12 59 34 5 60 35 5 61 36 5 62 35 5 63 37 5 64 36 5 65 38 5 66 39 5 67 40 5 68 39 5 69 41 5 70 40 5 71</p>
        </triangles>
      </mesh>
    </geometry>
  </library_geometries>
  <library_controllers>
    <controller id="Armature_KidsGuide3DArrow__Body01-skin" name="Armature">
      <skin source="#KidsGuide3DArrow__Body01_001-mesh">
        <bind_shape_matrix>1 0 0 0 0 1 0 0 0 0 1 0 0 0 0 1</bind_shape_matrix>
        <source id="Armature_KidsGuide3DArrow__Body01-skin-joints">
          <Name_array id="Armature_KidsGuide3DArrow__Body01-skin-joints-array" count="1">KidsGuide3DArrow</Name_array>
          <technique_common>
            <accessor source="#Armature_KidsGuide3DArrow__Body01-skin-joints-array" count="1" stride="1">
              <param name="JOINT" type="name"/>
            </accessor>
          </technique_common>
        </source>
        <source id="Armature_KidsGuide3DArrow__Body01-skin-bind_poses">
          <float_array id="Armature_KidsGuide3DArrow__Body01-skin-bind_poses-array" count="16">100.0001 0 0 0 0 7.5498e-6 100.0001 0 0 -100.0001 7.5498e-6 0 0 0 0 1</float_array>
          <technique_common>
            <accessor source="#Armature_KidsGuide3DArrow__Body01-skin-bind_poses-array" count="1" stride="16">
              <param name="TRANSFORM" type="float4x4"/>
            </accessor>
          </technique_common>
        </source>
        <source id="Armature_KidsGuide3DArrow__Body01-skin-weights">
          <float_array id="Armature_KidsGuide3DArrow__Body01-skin-weights-array" count="42">1 1 1 1 1 1 1 1 1 1 1 1 1 1 1 1 1 1 1 1 1 1 1 1 1 1 1 1 1 1 1 1 1 1 1 1 1 1 1 1 1 1</float_array>
          <technique_common>
            <accessor source="#Armature_KidsGuide3DArrow__Body01-skin-weights-array" count="42" stride="1">
              <param name="WEIGHT" type="float"/>
            </accessor>
          </technique_common>
        </source>
        <joints>
          <input semantic="JOINT" source="#Armature_KidsGuide3DArrow__Body01-skin-joints"/>
          <input semantic="INV_BIND_MATRIX" source="#Armature_KidsGuide3DArrow__Body01-skin-bind_poses"/>
        </joints>
        <vertex_weights count="42">
          <input semantic="JOINT" source="#Armature_KidsGuide3DArrow__Body01-skin-joints" offset="0"/>
          <input semantic="WEIGHT" source="#Armature_KidsGuide3DArrow__Body01-skin-weights" offset="1"/>
          <vcount>1 1 1 1 1 1 1 1 1 1 1 1 1 1 1 1 1 1 1 1 1 1 1 1 1 1 1 1 1 1 1 1 1 1 1 1 1 1 1 1 1 1 </vcount>
          <v>0 0 0 1 0 2 0 3 0 4 0 5 0 6 0 7 0 8 0 9 0 10 0 11 0 12 0 13 0 14 0 15 0 16 0 17 0 18 0 19 0 20 0 21 0 22 0 23 0 24 0 25 0 26 0 27 0 28 0 29 0 30 0 31 0 32 0 33 0 34 0 35 0 36 0 37 0 38 0 39 0 40 0 41</v>
        </vertex_weights>
      </skin>
    </controller>
  </library_controllers>
  <library_visual_scenes>
    <visual_scene id="Startup" name="Startup">
      <node id="Armature" name="Armature" type="NODE">
        <matrix sid="transform">0.00999999 0 0 0 0 7.54978e-10 -0.00999999 0 0 0.00999999 7.54978e-10 0 0 0 0 1</matrix>
        <node id="Armature_KidsGuide3DArrow" name="KidsGuide3DArrow" sid="KidsGuide3DArrow" type="JOINT">
          <matrix sid="transform">1 0 0 0 0 1 0 0 0 0 1 0 0 0 0 1</matrix>
          <extra>
            <technique profile="blender">
              <tip_x sid="tip_x" type="float">0</tip_x>
              <tip_y sid="tip_y" type="float">1</tip_y>
              <tip_z sid="tip_z" type="float">0</tip_z>
            </technique>
          </extra>
        </node>
        <node id="KidsGuide3DArrow__Body01" name="KidsGuide3DArrow__Body01" type="NODE">
          <matrix sid="transform">1 0 0 0 0 1 0 0 0 0 1 0 0 0 0 1</matrix>
          <instance_controller url="#Armature_KidsGuide3DArrow__Body01-skin">
            <skeleton>#Armature_KidsGuide3DArrow</skeleton>
            <bind_material>
              <technique_common>
                <instance_material symbol="Body01_001-material" target="#Body01_001-material">
                  <bind_vertex_input semantic="KidsGuide3DArrow__Body01-texcoord" input_semantic="TEXCOORD" input_set="0"/>
                </instance_material>
              </technique_common>
            </bind_material>
          </instance_controller>
        </node>
      </node>
    </visual_scene>
  </library_visual_scenes>
  <scene>
    <instance_visual_scene url="#Startup"/>
  </scene>
</COLLADA>